<svg width="20" height="20" viewBox="0 0 20 20" fill="none" xmlns="http://www.w3.org/2000/svg">
<path d="M8.33325 4.16667C8.33325 3.72464 8.50885 3.30072 8.82141 2.98816C9.13397 2.67559 9.55789 2.5 9.99992 2.5C10.4419 2.5 10.8659 2.67559 11.1784 2.98816C11.491 3.30072 11.6666 3.72464 11.6666 4.16667C12.6236 4.61919 13.4394 5.32361 14.0266 6.20442C14.6138 7.08523 14.9503 8.10923 14.9999 9.16667V11.6667C15.0626 12.1848 15.2461 12.6809 15.5356 13.1151C15.8251 13.5493 16.2125 13.9095 16.6666 14.1667H3.33325C3.78737 13.9095 4.17476 13.5493 4.46424 13.1151C4.75372 12.6809 4.93721 12.1848 4.99992 11.6667V9.16667C5.04955 8.10923 5.386 7.08523 5.97321 6.20442C6.56042 5.32361 7.37624 4.61919 8.33325 4.16667" stroke="#232323" stroke-linecap="round" stroke-linejoin="round"/>
<path d="M7.5 14.1665V14.9998C7.5 15.6629 7.76339 16.2988 8.23223 16.7676C8.70107 17.2364 9.33696 17.4998 10 17.4998C10.663 17.4998 11.2989 17.2364 11.7678 16.7676C12.2366 16.2988 12.5 15.6629 12.5 14.9998V14.1665" stroke="#232323" stroke-linecap="round" stroke-linejoin="round"/>
</svg>
