<svg width="20" height="20" viewBox="0 0 20 20" fill="none" xmlns="http://www.w3.org/2000/svg">
<path d="M16.2501 11.3101L10.0001 17.5001M10.0001 17.5001L3.75009 11.3101C3.33784 10.909 3.01312 10.4268 2.79638 9.89399C2.57963 9.36117 2.47556 8.78925 2.4907 8.21424C2.50585 7.63922 2.63989 7.07357 2.88439 6.55291C3.12888 6.03224 3.47853 5.56784 3.91133 5.18894C4.34412 4.81005 4.85068 4.52487 5.3991 4.35136C5.94752 4.17785 6.52593 4.11978 7.0979 4.18079C7.66986 4.24181 8.22301 4.42059 8.72248 4.70588C9.22196 4.99117 9.65696 5.37679 10.0001 5.83846C10.3447 5.38015 10.7802 4.99789 11.2793 4.71563C11.7785 4.43337 12.3305 4.25717 12.9009 4.19806C13.4712 4.13895 14.0477 4.19821 14.5941 4.37212C15.1405 4.54603 15.6451 4.83085 16.0764 5.20876C16.5077 5.58667 16.8563 6.04953 17.1004 6.56837C17.3446 7.08721 17.479 7.65086 17.4953 8.22405C17.5117 8.79724 17.4095 9.36762 17.1952 9.8995C16.9809 10.4314 16.6592 10.9133 16.2501 11.3151L10.0001 17.5001Z" stroke="#E55652" stroke-linecap="round" stroke-linejoin="round"/>
</svg>
