<svg width="20" height="20" viewBox="0 0 20 20" fill="none" xmlns="http://www.w3.org/2000/svg">
<path d="M5.00004 17.4998C5.92052 17.4998 6.66671 16.7536 6.66671 15.8332C6.66671 14.9127 5.92052 14.1665 5.00004 14.1665C4.07957 14.1665 3.33337 14.9127 3.33337 15.8332C3.33337 16.7536 4.07957 17.4998 5.00004 17.4998Z" stroke="#232323" stroke-linecap="round" stroke-linejoin="round"/>
<path d="M14.1667 17.4998C15.0871 17.4998 15.8333 16.7536 15.8333 15.8332C15.8333 14.9127 15.0871 14.1665 14.1667 14.1665C13.2462 14.1665 12.5 14.9127 12.5 15.8332C12.5 16.7536 13.2462 17.4998 14.1667 17.4998Z" stroke="#232323" stroke-linecap="round" stroke-linejoin="round"/>
<path d="M14.1667 14.1667H5.00004V2.5H3.33337" stroke="#232323" stroke-linecap="round" stroke-linejoin="round"/>
<path d="M5 4.1665L16.6667 4.99984L15.8333 10.8332H5" stroke="#232323" stroke-linecap="round" stroke-linejoin="round"/>
</svg>
