<svg width="20" height="20" viewBox="0 0 20 20" fill="none" xmlns="http://www.w3.org/2000/svg">
<path d="M13.3334 5.00016H15.8334C16.0544 5.00016 16.2663 5.08796 16.4226 5.24424C16.5789 5.40052 16.6667 5.61248 16.6667 5.8335V15.0002C16.6667 15.4422 16.4911 15.8661 16.1785 16.1787C15.866 16.4912 15.4421 16.6668 15 16.6668C14.558 16.6668 14.1341 16.4912 13.8215 16.1787C13.509 15.8661 13.3334 15.4422 13.3334 15.0002V4.16683C13.3334 3.94582 13.2456 3.73385 13.0893 3.57757C12.933 3.42129 12.7211 3.3335 12.5 3.3335H4.16671C3.94569 3.3335 3.73373 3.42129 3.57745 3.57757C3.42117 3.73385 3.33337 3.94582 3.33337 4.16683V14.1668C3.33337 14.8299 3.59677 15.4658 4.06561 15.9346C4.53445 16.4034 5.17033 16.6668 5.83337 16.6668H15" stroke="#232323" stroke-linecap="round" stroke-linejoin="round"/>
<path d="M6.66663 6.6665H9.99996" stroke="#232323" stroke-linecap="round" stroke-linejoin="round"/>
<path d="M6.66663 10H9.99996" stroke="#232323" stroke-linecap="round" stroke-linejoin="round"/>
<path d="M6.66663 13.3335H9.99996" stroke="#232323" stroke-linecap="round" stroke-linejoin="round"/>
</svg>
